<svg width="124" height="46" viewBox="0 0 124 46" fill="none" xmlns="http://www.w3.org/2000/svg">
<path d="M106.135 8.52792H109.075L111.489 8.8528L113.379 9.34011L115.164 9.98985L117.158 10.9645L118.733 12.0203L119.573 12.6701L120.623 13.7259L121.777 15.1878L122.617 16.6498L123.247 18.4366L123.562 20.5482V21.0355L123.457 21.198V32.6498L123.352 34.4366L123.037 36.1421L122.302 37.7665L121.462 39.066L120.413 40.3655L119.048 41.5838L118.208 42.2335L116.738 43.1269L114.849 44.0203L112.959 44.6701L111.174 45.0761L110.649 45.1574H108.97L107.605 44.8325L106.45 44.264L105.61 43.6142L104.98 42.802L104.561 41.9086L104.456 40.7716L104.771 39.7157L105.4 38.8223L106.345 38.0102L107.5 37.4416L108.76 37.0355L109.915 36.7107L111.069 36.1421L111.909 35.4112L112.539 34.3553L112.854 32.8122L112.959 32.2437L110.649 32.731L108.235 32.9746L106.03 32.8934L103.721 32.5685L101.201 31.9188L99.2065 31.1066L97.7368 30.2944L96.582 29.5635L95.4272 28.6701L94.1675 27.3706L93.1177 25.9899L92.2778 24.3655L91.7529 22.6599L91.543 21.0355V19.9797L91.8579 18.2741L92.2778 17.0558L93.1177 15.4315L93.9575 14.2944L94.7974 13.401L95.7422 12.5076L96.897 11.6142L98.6816 10.5584L100.361 9.82742L101.936 9.25889L104.141 8.77158L106.135 8.52792Z" fill="#22223B"/>
<path d="M16.5869 0H17.9517L19.2114 0.243655L20.3662 0.730964L21.521 1.62437L22.1509 2.51777L22.4658 3.24873L22.5708 3.89848L22.6758 8.77157L24.2505 8.52792L26.5601 8.20305H29.3945L31.8091 8.52792L34.0137 9.09645L35.6934 9.74619L36.9531 10.3147L38.3179 11.1269L39.6826 12.1015V12.264H39.8926L41.0474 13.401L41.9922 14.5381L42.832 15.9188L43.4619 17.3807L43.7769 18.599L43.9868 20.1421V20.9543L43.6719 22.7411L43.042 24.4467L42.3071 25.7462L41.3623 27.0457L40.2075 28.1827L38.9478 29.2386L37.373 30.2132L35.9033 30.9442L34.2236 31.5939L32.439 32.0812L30.0244 32.4873L29.1846 32.5685H26.98L24.8804 32.3249L22.8857 31.9188L21.521 31.5127L19.5264 30.7005L18.0566 29.8883L16.6919 28.9949L15.5371 28.0203L14.3823 26.802L13.1226 24.934L12.4927 23.4721L12.1777 22.335L12.0728 21.6853V3.16751L12.5977 2.19289L13.2275 1.46193L13.9624 0.893401L15.1172 0.324873L16.062 0.0812183L16.5869 0Z" fill="#22223B"/>
<path d="M72.5415 8.4467H75.166L77.1606 8.69036L79.3652 9.17767L81.0449 9.74619L82.5146 10.3959L83.7744 11.1269L85.0342 12.0203L86.2939 13.1574L87.4487 14.6193L88.2886 16L88.9185 17.5431L89.2334 18.8426L89.4434 20.2234V21.6041L89.1284 23.2284L88.4985 24.934L87.6587 26.3959L86.7139 27.6142L85.769 28.5888L84.6143 29.5635L83.5645 30.2944L81.8848 31.1878L80.1001 31.9188L77.5806 32.5685L76.1108 32.8122L74.5361 32.8934H73.3813L71.7017 32.8122L69.6021 32.4873L67.7124 32L66.1377 31.4315H65.4028L60.4688 32.8122L58.999 33.2183H58.7891L58.894 32.8122L60.1538 30.0508L60.9937 28.1827V27.6954L59.9438 26.3959L59.104 24.8528L58.5791 23.3096L58.2642 21.5228V19.5736L58.6841 17.6244L59.209 16.2437L60.3638 14.3756L61.4136 13.1574L62.5684 12.1015L63.6182 11.2893L64.9829 10.4772L66.7676 9.66498L68.5522 9.09645L70.5469 8.69036L72.5415 8.4467Z" fill="#C9ADA7"/>
<path d="M50.4956 0H51.5454L53.1201 0.324873L54.1699 0.812183L54.7998 1.21827L55.6396 2.11168L56.1646 3.08629L56.2695 3.5736V28.9137L55.9546 29.8883L55.4297 30.6193L54.6948 31.3503L53.645 31.9188L52.3853 32.3249L51.8604 32.4061H50.1807L48.8159 32.0812L47.6611 31.5127L46.9263 30.9442L46.1914 30.0508L45.8765 29.3198L45.7715 28.8325V3.5736L46.0864 2.59898L46.8213 1.62437L47.4512 1.05584L48.9209 0.324873L49.8657 0.0812183L50.4956 0Z" fill="#22223B"/>
<path d="M27.085 16.3249H28.8696L30.2344 16.6497L31.3892 17.2183L32.124 17.7868L32.8589 18.6802L33.2788 19.736V21.0355L32.8589 22.0914L32.124 22.9848L31.3892 23.5533L30.3394 24.0406L29.2896 24.3655L28.7646 24.4467H27.085L25.7202 24.1218L24.5654 23.5533L23.7256 22.9036L23.0957 22.0914L22.6758 21.0355V19.736L23.0957 18.6802L23.8306 17.7868L24.6704 17.1371L25.9302 16.5685L27.085 16.3249Z" fill="#FEFEFE"/>
<path d="M106.87 16.731H108.13L109.495 16.9746L110.754 17.5431L111.804 18.3553L112.644 19.6548L112.854 20.3858V21.2792L112.539 22.2538L111.909 23.1472L110.964 23.9594L109.915 24.4467L108.97 24.7716L108.55 24.8528H106.45L104.98 24.4467L103.826 23.7969L102.881 22.9035L102.356 21.9289L102.146 21.0355L102.251 19.8985L102.671 19.0051L103.511 18.1117L104.246 17.5431L105.295 17.0558L106.24 16.8122L106.87 16.731Z" fill="#FEFEFE"/>
<path d="M4.3042 24.6904H5.77393L7.13867 25.0152L8.18848 25.5025L8.92334 25.9898L9.6582 26.8832L10.0781 27.8579L10.1831 28.9137L9.76318 30.2132L8.92334 31.1878L7.97852 31.8376L6.71875 32.3249L5.87891 32.4873H4.3042L2.93945 32.1624L1.78467 31.5939L0.839844 30.7817L0.314941 29.9695L0 28.9949V28.264L0.314941 27.2081L0.944824 26.3147L1.67969 25.665L2.93945 25.0152L4.3042 24.6904Z" fill="#22223B"/>
</svg>
