<svg width="215" height="89" viewBox="0 0 215 89" fill="none" xmlns="http://www.w3.org/2000/svg">
<path d="M150.437 13.1421H153.376L155.791 13.467L157.681 13.9543L159.465 14.604L161.46 15.5786L163.035 16.6345L163.875 17.2842L164.924 18.3401L166.079 19.802L166.919 21.2639L167.549 23.0507L167.864 25.1624V25.6497L167.759 25.8121V37.2639L167.654 39.0507L167.339 40.7563L166.604 42.3807L165.764 43.6802L164.714 44.9797L163.35 46.1979L162.51 46.8477L161.04 47.7411L159.15 48.6345L157.261 49.2842L155.476 49.6903L154.951 49.7715H153.271L151.907 49.4467L150.752 48.8781L149.912 48.2284L149.282 47.4162L148.862 46.5228L148.757 45.3857L149.072 44.3299L149.702 43.4365L150.647 42.6243L151.802 42.0558L153.062 41.6497L154.216 41.3248L155.371 40.7563L156.211 40.0253L156.841 38.9695L157.156 37.4264L157.261 36.8578L154.951 37.3451L152.537 37.5888L150.332 37.5076L148.022 37.1827L145.503 36.533L143.508 35.7208L142.039 34.9086L140.884 34.1776L139.729 33.2842L138.469 31.9847L137.419 30.604L136.58 28.9797L136.055 27.2741L135.845 25.6497V24.5939L136.16 22.8883L136.58 21.67L137.419 20.0456L138.259 18.9086L139.099 18.0152L140.044 17.1218L141.199 16.2284L142.983 15.1725L144.663 14.4416L146.238 13.8731L148.442 13.3857L150.437 13.1421Z" fill="#22223B"/>
<path d="M60.8887 4.61426H62.2534L63.5132 4.85791L64.668 5.34522L65.8228 6.23862L66.4526 7.13202L66.7676 7.86299L66.8726 8.51273L66.9775 13.3858L68.5522 13.1422L70.8618 12.8173H73.6963L76.1108 13.1422L78.3154 13.7107L79.9951 14.3605L81.2549 14.929L82.6196 15.7412L83.9844 16.7158V16.8782H84.1943L85.3491 18.0153L86.2939 19.1523L87.1338 20.533L87.7637 21.995L88.0786 23.2132L88.2886 24.7564V25.5686L87.9736 27.3554L87.3438 29.061L86.6089 30.3605L85.6641 31.6599L84.5093 32.797L83.2495 33.8528L81.6748 34.8275L80.2051 35.5584L78.5254 36.2082L76.7407 36.6955L74.3262 37.1016L73.4863 37.1828H71.2817L69.1821 36.9391L67.1875 36.533L65.8228 36.1269L63.8281 35.3148L62.3584 34.5026L60.9937 33.6092L59.8389 32.6346L58.6841 31.4163L57.4243 29.5483L56.7944 28.0863L56.4795 26.9493L56.3745 26.2995V7.78177L56.8994 6.80715L57.5293 6.07619L58.2642 5.50766L59.4189 4.93913L60.3638 4.69548L60.8887 4.61426Z" fill="#22223B"/>
<path d="M116.843 13.0609H119.468L121.462 13.3046L123.667 13.7919L125.347 14.3604L126.816 15.0102L128.076 15.7411L129.336 16.6345L130.596 17.7716L131.75 19.2335L132.59 20.6142L133.22 22.1574L133.535 23.4569L133.745 24.8376V26.2183L133.43 27.8426L132.8 29.5482L131.96 31.0102L131.016 32.2284L130.071 33.203L128.916 34.1777L127.866 34.9086L126.187 35.802L124.402 36.533L121.882 37.1827L120.413 37.4264L118.838 37.5076H117.683L116.003 37.4264L113.904 37.1015L112.014 36.6142L110.439 36.0457H109.705L104.771 37.4264L103.301 37.8325H103.091L103.196 37.4264L104.456 34.665L105.295 32.797V32.3096L104.246 31.0102L103.406 29.467L102.881 27.9239L102.566 26.1371V24.1878L102.986 22.2386L103.511 20.8579L104.666 18.9898L105.715 17.7716L106.87 16.7157L107.92 15.9036L109.285 15.0914L111.069 14.2792L112.854 13.7107L114.849 13.3046L116.843 13.0609Z" fill="#C9ADA7"/>
<path d="M94.7974 4.61426H95.8472L97.4219 4.93913L98.4717 5.42644L99.1016 5.83253L99.9414 6.72593L100.466 7.70055L100.571 8.18786V33.528L100.256 34.5026L99.7314 35.2335L98.9966 35.9645L97.9468 36.533L96.687 36.9391L96.1621 37.0203H94.4824L93.1177 36.6955L91.9629 36.1269L91.228 35.5584L90.4932 34.665L90.1782 33.9341L90.0732 33.4467V8.18786L90.3882 7.21324L91.123 6.23862L91.7529 5.6701L93.2227 4.93913L94.1675 4.69548L94.7974 4.61426Z" fill="#22223B"/>
<path d="M71.3867 20.9391H73.1714L74.5361 21.264L75.6909 21.8325L76.4258 22.401L77.1606 23.2944L77.5806 24.3503V25.6497L77.1606 26.7056L76.4258 27.599L75.6909 28.1675L74.6411 28.6548L73.5913 28.9797L73.0664 29.0609H71.3867L70.022 28.736L68.8672 28.1675L68.0273 27.5178L67.3975 26.7056L66.9775 25.6497V24.3503L67.3975 23.2944L68.1323 22.401L68.9722 21.7513L70.2319 21.1827L71.3867 20.9391Z" fill="#FEFEFE"/>
<path d="M151.172 21.3452H152.432L153.796 21.5889L155.056 22.1574L156.106 22.9696L156.946 24.2691L157.156 25V25.8934L156.841 26.8681L156.211 27.7615L155.266 28.5736L154.216 29.061L153.271 29.3858L152.852 29.467H150.752L149.282 29.061L148.127 28.4112L147.183 27.5178L146.658 26.5432L146.448 25.6498L146.553 24.5127L146.973 23.6193L147.812 22.7259L148.547 22.1574L149.597 21.6701L150.542 21.4264L151.172 21.3452Z" fill="#FEFEFE"/>
<path d="M48.606 29.3046H50.0757L51.4404 29.6294L52.4902 30.1167L53.2251 30.6041L53.96 31.4975L54.3799 32.4721L54.4849 33.5279L54.0649 34.8274L53.2251 35.802L52.2803 36.4518L51.0205 36.9391L50.1807 37.1015H48.606L47.2412 36.7766L46.0864 36.2081L45.1416 35.3959L44.6167 34.5838L44.3018 33.6091V32.8782L44.6167 31.8223L45.2466 30.9289L45.9814 30.2792L47.2412 29.6294L48.606 29.3046Z" fill="#22223B"/>
</svg>
